<?xml version="1.0" ?><!DOCTYPE svg  PUBLIC '-//W3C//DTD SVG 1.1//EN'  'http://www.w3.org/Graphics/SVG/1.1/DTD/svg11.dtd'><svg enable-background="new 0 0 128 128" id="Слой_1" version="1.1" viewBox="0 0 128 128" xml:space="preserve" xmlns="http://www.w3.org/2000/svg" xmlns:xlink="http://www.w3.org/1999/xlink"><circle cx="24" cy="97.3" fill="#FFFFFF" r="20"/><circle cx="104" cy="97.3" fill="#FFFFFF" r="20"/><g><circle cx="64" cy="30.7" fill="#E5E6E6" r="20"/><g><path d="M24,118.8c-11.9,0-21.5-9.6-21.5-21.5S12.1,75.8,24,75.8s21.5,9.6,21.5,21.5S35.9,118.8,24,118.8z     M24,78.8c-10.2,0-18.5,8.3-18.5,18.5s8.3,18.5,18.5,18.5s18.5-8.3,18.5-18.5S34.2,78.8,24,78.8z" fill="#4A374F"/></g><path d="M104,75.8c-3.5,0-6.8,0.9-9.7,2.4L82.4,58.5c-0.4-0.7-1.3-0.9-2.1-0.5c-0.7,0.4-0.9,1.3-0.5,2.1l11.8,19.7   c-5.5,3.9-9.2,10.3-9.2,17.6c0,11.9,9.6,21.5,21.5,21.5s21.5-9.6,21.5-21.5S115.9,75.8,104,75.8z M104,115.8   c-10.2,0-18.5-8.3-18.5-18.5s8.3-18.5,18.5-18.5s18.5,8.3,18.5,18.5S114.2,115.8,104,115.8z" fill="#4A374F"/><path d="M64,9.2c-11.9,0-21.5,9.6-21.5,21.5c0,7.5,3.9,14.1,9.7,18l-12,19.5c-0.4,0.7-0.2,1.6,0.5,2.1   c0.2,0.2,0.5,0.2,0.8,0.2c0.5,0,1-0.3,1.3-0.7l12.1-19.7c2.8,1.3,5.9,2.1,9.1,2.1c11.9,0,21.5-9.6,21.5-21.5S75.9,9.2,64,9.2z    M64,49.2c-10.2,0-18.5-8.3-18.5-18.5S53.8,12.2,64,12.2s18.5,8.3,18.5,18.5S74.2,49.2,64,49.2z" fill="#4A374F"/></g></svg>